<?xml version="1.0" encoding="utf-8" standalone="no"?>
<!DOCTYPE svg PUBLIC "-//W3C//DTD SVG 1.1//EN"
  "http://www.w3.org/Graphics/SVG/1.1/DTD/svg11.dtd">
<svg xmlns:xlink="http://www.w3.org/1999/xlink" width="864pt" height="576pt" viewBox="0 0 864 576" xmlns="http://www.w3.org/2000/svg" version="1.1">
 <metadata>
  <rdf:RDF xmlns:dc="http://purl.org/dc/elements/1.1/" xmlns:cc="http://creativecommons.org/ns#" xmlns:rdf="http://www.w3.org/1999/02/22-rdf-syntax-ns#">
   <cc:Work>
    <dc:type rdf:resource="http://purl.org/dc/dcmitype/StillImage"/>
    <dc:date>2024-06-09T19:15:05.077538</dc:date>
    <dc:format>image/svg+xml</dc:format>
    <dc:creator>
     <cc:Agent>
      <dc:title>Matplotlib v3.9.0, https://matplotlib.org/</dc:title>
     </cc:Agent>
    </dc:creator>
   </cc:Work>
  </rdf:RDF>
 </metadata>
 <defs>
  <style type="text/css">*{stroke-linejoin: round; stroke-linecap: butt}</style>
 </defs>
 <g id="figure_1">
  <g id="patch_1">
   <path d="M 0 576 
L 864 576 
L 864 0 
L 0 0 
z
" style="fill: #ffffff"/>
  </g>
  <g id="axes_1">
   <g id="patch_2">
    <path d="M 108 512.64 
L 777.6 512.64 
L 777.6 69.12 
L 108 69.12 
z
" style="fill: #ffffff"/>
   </g>
   <g id="patch_3">
    <path d="M 138.436364 512.64 
L 225.397403 512.64 
L 225.397403 457.36652 
L 138.436364 457.36652 
z
" clip-path="url(#p68a1281a90)" style="fill: #1f77b4; fill-opacity: 0.5; stroke: #000000; stroke-linejoin: miter"/>
   </g>
   <g id="patch_4">
    <path d="M 225.397403 512.64 
L 312.358442 512.64 
L 312.358442 482.672451 
L 225.397403 482.672451 
z
" clip-path="url(#p68a1281a90)" style="fill: #1f77b4; fill-opacity: 0.5; stroke: #000000; stroke-linejoin: miter"/>
   </g>
   <g id="patch_5">
    <path d="M 312.358442 512.64 
L 399.319481 512.64 
L 399.319481 378.119 
L 312.358442 378.119 
z
" clip-path="url(#p68a1281a90)" style="fill: #1f77b4; fill-opacity: 0.5; stroke: #000000; stroke-linejoin: miter"/>
   </g>
   <g id="patch_6">
    <path d="M 399.319481 512.64 
L 486.280519 512.64 
L 486.280519 270.901768 
L 399.319481 270.901768 
z
" clip-path="url(#p68a1281a90)" style="fill: #1f77b4; fill-opacity: 0.5; stroke: #000000; stroke-linejoin: miter"/>
   </g>
   <g id="patch_7">
    <path d="M 486.280519 512.64 
L 573.241558 512.64 
L 573.241558 192.320193 
L 486.280519 192.320193 
z
" clip-path="url(#p68a1281a90)" style="fill: #1f77b4; fill-opacity: 0.5; stroke: #000000; stroke-linejoin: miter"/>
   </g>
   <g id="patch_8">
    <path d="M 573.241558 512.64 
L 660.202597 512.64 
L 660.202597 500.65298 
L 573.241558 500.65298 
z
" clip-path="url(#p68a1281a90)" style="fill: #1f77b4; fill-opacity: 0.5; stroke: #000000; stroke-linejoin: miter"/>
   </g>
   <g id="patch_9">
    <path d="M 660.202597 512.64 
L 747.163636 512.64 
L 747.163636 494.65947 
L 660.202597 494.65947 
z
" clip-path="url(#p68a1281a90)" style="fill: #1f77b4; fill-opacity: 0.5; stroke: #000000; stroke-linejoin: miter"/>
   </g>
   <g id="matplotlib.axis_1">
    <g id="xtick_1">
     <g id="line2d_1">
      <defs>
       <path id="m471c67820b" d="M 0 0 
L 0 3.5 
" style="stroke: #000000; stroke-width: 0.8"/>
      </defs>
      <g>
       <use xlink:href="#m471c67820b" x="181.916883" y="512.64" style="stroke: #000000; stroke-width: 0.8"/>
      </g>
     </g>
     <g id="text_1">
      <!-- indifferent -->
      <g transform="translate(134.152118 548.389754) rotate(-25) scale(0.1 -0.1)">
       <defs>
        <path id="DejaVuSans-69" d="M 603 3500 
L 1178 3500 
L 1178 0 
L 603 0 
L 603 3500 
z
M 603 4863 
L 1178 4863 
L 1178 4134 
L 603 4134 
L 603 4863 
z
" transform="scale(0.015625)"/>
        <path id="DejaVuSans-6e" d="M 3513 2113 
L 3513 0 
L 2938 0 
L 2938 2094 
Q 2938 2591 2744 2837 
Q 2550 3084 2163 3084 
Q 1697 3084 1428 2787 
Q 1159 2491 1159 1978 
L 1159 0 
L 581 0 
L 581 3500 
L 1159 3500 
L 1159 2956 
Q 1366 3272 1645 3428 
Q 1925 3584 2291 3584 
Q 2894 3584 3203 3211 
Q 3513 2838 3513 2113 
z
" transform="scale(0.015625)"/>
        <path id="DejaVuSans-64" d="M 2906 2969 
L 2906 4863 
L 3481 4863 
L 3481 0 
L 2906 0 
L 2906 525 
Q 2725 213 2448 61 
Q 2172 -91 1784 -91 
Q 1150 -91 751 415 
Q 353 922 353 1747 
Q 353 2572 751 3078 
Q 1150 3584 1784 3584 
Q 2172 3584 2448 3432 
Q 2725 3281 2906 2969 
z
M 947 1747 
Q 947 1113 1208 752 
Q 1469 391 1925 391 
Q 2381 391 2643 752 
Q 2906 1113 2906 1747 
Q 2906 2381 2643 2742 
Q 2381 3103 1925 3103 
Q 1469 3103 1208 2742 
Q 947 2381 947 1747 
z
" transform="scale(0.015625)"/>
        <path id="DejaVuSans-66" d="M 2375 4863 
L 2375 4384 
L 1825 4384 
Q 1516 4384 1395 4259 
Q 1275 4134 1275 3809 
L 1275 3500 
L 2222 3500 
L 2222 3053 
L 1275 3053 
L 1275 0 
L 697 0 
L 697 3053 
L 147 3053 
L 147 3500 
L 697 3500 
L 697 3744 
Q 697 4328 969 4595 
Q 1241 4863 1831 4863 
L 2375 4863 
z
" transform="scale(0.015625)"/>
        <path id="DejaVuSans-65" d="M 3597 1894 
L 3597 1613 
L 953 1613 
Q 991 1019 1311 708 
Q 1631 397 2203 397 
Q 2534 397 2845 478 
Q 3156 559 3463 722 
L 3463 178 
Q 3153 47 2828 -22 
Q 2503 -91 2169 -91 
Q 1331 -91 842 396 
Q 353 884 353 1716 
Q 353 2575 817 3079 
Q 1281 3584 2069 3584 
Q 2775 3584 3186 3129 
Q 3597 2675 3597 1894 
z
M 3022 2063 
Q 3016 2534 2758 2815 
Q 2500 3097 2075 3097 
Q 1594 3097 1305 2825 
Q 1016 2553 972 2059 
L 3022 2063 
z
" transform="scale(0.015625)"/>
        <path id="DejaVuSans-72" d="M 2631 2963 
Q 2534 3019 2420 3045 
Q 2306 3072 2169 3072 
Q 1681 3072 1420 2755 
Q 1159 2438 1159 1844 
L 1159 0 
L 581 0 
L 581 3500 
L 1159 3500 
L 1159 2956 
Q 1341 3275 1631 3429 
Q 1922 3584 2338 3584 
Q 2397 3584 2469 3576 
Q 2541 3569 2628 3553 
L 2631 2963 
z
" transform="scale(0.015625)"/>
        <path id="DejaVuSans-74" d="M 1172 4494 
L 1172 3500 
L 2356 3500 
L 2356 3053 
L 1172 3053 
L 1172 1153 
Q 1172 725 1289 603 
Q 1406 481 1766 481 
L 2356 481 
L 2356 0 
L 1766 0 
Q 1100 0 847 248 
Q 594 497 594 1153 
L 594 3053 
L 172 3053 
L 172 3500 
L 594 3500 
L 594 4494 
L 1172 4494 
z
" transform="scale(0.015625)"/>
       </defs>
       <use xlink:href="#DejaVuSans-69"/>
       <use xlink:href="#DejaVuSans-6e" x="27.783203"/>
       <use xlink:href="#DejaVuSans-64" x="91.162109"/>
       <use xlink:href="#DejaVuSans-69" x="154.638672"/>
       <use xlink:href="#DejaVuSans-66" x="182.421875"/>
       <use xlink:href="#DejaVuSans-66" x="217.626953"/>
       <use xlink:href="#DejaVuSans-65" x="252.832031"/>
       <use xlink:href="#DejaVuSans-72" x="314.355469"/>
       <use xlink:href="#DejaVuSans-65" x="353.21875"/>
       <use xlink:href="#DejaVuSans-6e" x="414.742188"/>
       <use xlink:href="#DejaVuSans-74" x="478.121094"/>
      </g>
     </g>
    </g>
    <g id="xtick_2">
     <g id="line2d_2">
      <g>
       <use xlink:href="#m471c67820b" x="268.877922" y="512.64" style="stroke: #000000; stroke-width: 0.8"/>
      </g>
     </g>
     <g id="text_2">
      <!-- dislike -->
      <g transform="translate(239.474387 539.827773) rotate(-25) scale(0.1 -0.1)">
       <defs>
        <path id="DejaVuSans-73" d="M 2834 3397 
L 2834 2853 
Q 2591 2978 2328 3040 
Q 2066 3103 1784 3103 
Q 1356 3103 1142 2972 
Q 928 2841 928 2578 
Q 928 2378 1081 2264 
Q 1234 2150 1697 2047 
L 1894 2003 
Q 2506 1872 2764 1633 
Q 3022 1394 3022 966 
Q 3022 478 2636 193 
Q 2250 -91 1575 -91 
Q 1294 -91 989 -36 
Q 684 19 347 128 
L 347 722 
Q 666 556 975 473 
Q 1284 391 1588 391 
Q 1994 391 2212 530 
Q 2431 669 2431 922 
Q 2431 1156 2273 1281 
Q 2116 1406 1581 1522 
L 1381 1569 
Q 847 1681 609 1914 
Q 372 2147 372 2553 
Q 372 3047 722 3315 
Q 1072 3584 1716 3584 
Q 2034 3584 2315 3537 
Q 2597 3491 2834 3397 
z
" transform="scale(0.015625)"/>
        <path id="DejaVuSans-6c" d="M 603 4863 
L 1178 4863 
L 1178 0 
L 603 0 
L 603 4863 
z
" transform="scale(0.015625)"/>
        <path id="DejaVuSans-6b" d="M 581 4863 
L 1159 4863 
L 1159 1991 
L 2875 3500 
L 3609 3500 
L 1753 1863 
L 3688 0 
L 2938 0 
L 1159 1709 
L 1159 0 
L 581 0 
L 581 4863 
z
" transform="scale(0.015625)"/>
       </defs>
       <use xlink:href="#DejaVuSans-64"/>
       <use xlink:href="#DejaVuSans-69" x="63.476562"/>
       <use xlink:href="#DejaVuSans-73" x="91.259766"/>
       <use xlink:href="#DejaVuSans-6c" x="143.359375"/>
       <use xlink:href="#DejaVuSans-69" x="171.142578"/>
       <use xlink:href="#DejaVuSans-6b" x="198.925781"/>
       <use xlink:href="#DejaVuSans-65" x="253.210938"/>
      </g>
     </g>
    </g>
    <g id="xtick_3">
     <g id="line2d_3">
      <g>
       <use xlink:href="#m471c67820b" x="355.838961" y="512.64" style="stroke: #000000; stroke-width: 0.8"/>
      </g>
     </g>
     <g id="text_3">
      <!-- like -->
      <g transform="translate(339.428197 533.769144) rotate(-25) scale(0.1 -0.1)">
       <use xlink:href="#DejaVuSans-6c"/>
       <use xlink:href="#DejaVuSans-69" x="27.783203"/>
       <use xlink:href="#DejaVuSans-6b" x="55.566406"/>
       <use xlink:href="#DejaVuSans-65" x="109.851562"/>
      </g>
     </g>
    </g>
    <g id="xtick_4">
     <g id="line2d_4">
      <g>
       <use xlink:href="#m471c67820b" x="442.8" y="512.64" style="stroke: #000000; stroke-width: 0.8"/>
      </g>
     </g>
     <g id="text_4">
      <!-- favorite -->
      <g transform="translate(406.893706 542.860059) rotate(-25) scale(0.1 -0.1)">
       <defs>
        <path id="DejaVuSans-61" d="M 2194 1759 
Q 1497 1759 1228 1600 
Q 959 1441 959 1056 
Q 959 750 1161 570 
Q 1363 391 1709 391 
Q 2188 391 2477 730 
Q 2766 1069 2766 1631 
L 2766 1759 
L 2194 1759 
z
M 3341 1997 
L 3341 0 
L 2766 0 
L 2766 531 
Q 2569 213 2275 61 
Q 1981 -91 1556 -91 
Q 1019 -91 701 211 
Q 384 513 384 1019 
Q 384 1609 779 1909 
Q 1175 2209 1959 2209 
L 2766 2209 
L 2766 2266 
Q 2766 2663 2505 2880 
Q 2244 3097 1772 3097 
Q 1472 3097 1187 3025 
Q 903 2953 641 2809 
L 641 3341 
Q 956 3463 1253 3523 
Q 1550 3584 1831 3584 
Q 2591 3584 2966 3190 
Q 3341 2797 3341 1997 
z
" transform="scale(0.015625)"/>
        <path id="DejaVuSans-76" d="M 191 3500 
L 800 3500 
L 1894 563 
L 2988 3500 
L 3597 3500 
L 2284 0 
L 1503 0 
L 191 3500 
z
" transform="scale(0.015625)"/>
        <path id="DejaVuSans-6f" d="M 1959 3097 
Q 1497 3097 1228 2736 
Q 959 2375 959 1747 
Q 959 1119 1226 758 
Q 1494 397 1959 397 
Q 2419 397 2687 759 
Q 2956 1122 2956 1747 
Q 2956 2369 2687 2733 
Q 2419 3097 1959 3097 
z
M 1959 3584 
Q 2709 3584 3137 3096 
Q 3566 2609 3566 1747 
Q 3566 888 3137 398 
Q 2709 -91 1959 -91 
Q 1206 -91 779 398 
Q 353 888 353 1747 
Q 353 2609 779 3096 
Q 1206 3584 1959 3584 
z
" transform="scale(0.015625)"/>
       </defs>
       <use xlink:href="#DejaVuSans-66"/>
       <use xlink:href="#DejaVuSans-61" x="35.205078"/>
       <use xlink:href="#DejaVuSans-76" x="96.484375"/>
       <use xlink:href="#DejaVuSans-6f" x="155.664062"/>
       <use xlink:href="#DejaVuSans-72" x="216.845703"/>
       <use xlink:href="#DejaVuSans-69" x="257.958984"/>
       <use xlink:href="#DejaVuSans-74" x="285.742188"/>
       <use xlink:href="#DejaVuSans-65" x="324.951172"/>
      </g>
     </g>
    </g>
    <g id="xtick_5">
     <g id="line2d_5">
      <g>
       <use xlink:href="#m471c67820b" x="529.761039" y="512.64" style="stroke: #000000; stroke-width: 0.8"/>
      </g>
     </g>
     <g id="text_5">
      <!-- one of favorites -->
      <g transform="translate(457.77095 559.686208) rotate(-25) scale(0.1 -0.1)">
       <defs>
        <path id="DejaVuSans-20" transform="scale(0.015625)"/>
       </defs>
       <use xlink:href="#DejaVuSans-6f"/>
       <use xlink:href="#DejaVuSans-6e" x="61.181641"/>
       <use xlink:href="#DejaVuSans-65" x="124.560547"/>
       <use xlink:href="#DejaVuSans-20" x="186.083984"/>
       <use xlink:href="#DejaVuSans-6f" x="217.871094"/>
       <use xlink:href="#DejaVuSans-66" x="279.052734"/>
       <use xlink:href="#DejaVuSans-20" x="314.257812"/>
       <use xlink:href="#DejaVuSans-66" x="346.044922"/>
       <use xlink:href="#DejaVuSans-61" x="381.25"/>
       <use xlink:href="#DejaVuSans-76" x="442.529297"/>
       <use xlink:href="#DejaVuSans-6f" x="501.708984"/>
       <use xlink:href="#DejaVuSans-72" x="562.890625"/>
       <use xlink:href="#DejaVuSans-69" x="604.003906"/>
       <use xlink:href="#DejaVuSans-74" x="631.787109"/>
       <use xlink:href="#DejaVuSans-65" x="670.996094"/>
       <use xlink:href="#DejaVuSans-73" x="732.519531"/>
      </g>
     </g>
    </g>
    <g id="xtick_6">
     <g id="line2d_6">
      <g>
       <use xlink:href="#m471c67820b" x="616.722078" y="512.64" style="stroke: #000000; stroke-width: 0.8"/>
      </g>
     </g>
     <g id="text_6">
      <!-- hate -->
      <g transform="translate(595.415836 536.051942) rotate(-25) scale(0.1 -0.1)">
       <defs>
        <path id="DejaVuSans-68" d="M 3513 2113 
L 3513 0 
L 2938 0 
L 2938 2094 
Q 2938 2591 2744 2837 
Q 2550 3084 2163 3084 
Q 1697 3084 1428 2787 
Q 1159 2491 1159 1978 
L 1159 0 
L 581 0 
L 581 4863 
L 1159 4863 
L 1159 2956 
Q 1366 3272 1645 3428 
Q 1925 3584 2291 3584 
Q 2894 3584 3203 3211 
Q 3513 2838 3513 2113 
z
" transform="scale(0.015625)"/>
       </defs>
       <use xlink:href="#DejaVuSans-68"/>
       <use xlink:href="#DejaVuSans-61" x="63.378906"/>
       <use xlink:href="#DejaVuSans-74" x="124.658203"/>
       <use xlink:href="#DejaVuSans-65" x="163.867188"/>
      </g>
     </g>
    </g>
    <g id="xtick_7">
     <g id="line2d_7">
      <g>
       <use xlink:href="#m471c67820b" x="703.683117" y="512.64" style="stroke: #000000; stroke-width: 0.8"/>
      </g>
     </g>
     <g id="text_7">
      <!-- one of hated -->
      <g transform="translate(645.260739 553.359481) rotate(-25) scale(0.1 -0.1)">
       <use xlink:href="#DejaVuSans-6f"/>
       <use xlink:href="#DejaVuSans-6e" x="61.181641"/>
       <use xlink:href="#DejaVuSans-65" x="124.560547"/>
       <use xlink:href="#DejaVuSans-20" x="186.083984"/>
       <use xlink:href="#DejaVuSans-6f" x="217.871094"/>
       <use xlink:href="#DejaVuSans-66" x="279.052734"/>
       <use xlink:href="#DejaVuSans-20" x="314.257812"/>
       <use xlink:href="#DejaVuSans-68" x="346.044922"/>
       <use xlink:href="#DejaVuSans-61" x="409.423828"/>
       <use xlink:href="#DejaVuSans-74" x="470.703125"/>
       <use xlink:href="#DejaVuSans-65" x="509.912109"/>
       <use xlink:href="#DejaVuSans-64" x="571.435547"/>
      </g>
     </g>
    </g>
    <g id="text_8">
     <!-- Value -->
     <g transform="translate(429.06875 573.169483) scale(0.1 -0.1)">
      <defs>
       <path id="DejaVuSans-56" d="M 1831 0 
L 50 4666 
L 709 4666 
L 2188 738 
L 3669 4666 
L 4325 4666 
L 2547 0 
L 1831 0 
z
" transform="scale(0.015625)"/>
       <path id="DejaVuSans-75" d="M 544 1381 
L 544 3500 
L 1119 3500 
L 1119 1403 
Q 1119 906 1312 657 
Q 1506 409 1894 409 
Q 2359 409 2629 706 
Q 2900 1003 2900 1516 
L 2900 3500 
L 3475 3500 
L 3475 0 
L 2900 0 
L 2900 538 
Q 2691 219 2414 64 
Q 2138 -91 1772 -91 
Q 1169 -91 856 284 
Q 544 659 544 1381 
z
M 1991 3584 
L 1991 3584 
z
" transform="scale(0.015625)"/>
      </defs>
      <use xlink:href="#DejaVuSans-56"/>
      <use xlink:href="#DejaVuSans-61" x="60.658203"/>
      <use xlink:href="#DejaVuSans-6c" x="121.9375"/>
      <use xlink:href="#DejaVuSans-75" x="149.720703"/>
      <use xlink:href="#DejaVuSans-65" x="213.099609"/>
     </g>
    </g>
   </g>
   <g id="matplotlib.axis_2">
    <g id="ytick_1">
     <g id="line2d_8">
      <defs>
       <path id="m5a2db215e5" d="M 0 0 
L -3.5 0 
" style="stroke: #000000; stroke-width: 0.8"/>
      </defs>
      <g>
       <use xlink:href="#m5a2db215e5" x="108" y="512.64" style="stroke: #000000; stroke-width: 0.8"/>
      </g>
     </g>
     <g id="text_9">
      <!-- 0 -->
      <g transform="translate(94.6375 516.439219) scale(0.1 -0.1)">
       <defs>
        <path id="DejaVuSans-30" d="M 2034 4250 
Q 1547 4250 1301 3770 
Q 1056 3291 1056 2328 
Q 1056 1369 1301 889 
Q 1547 409 2034 409 
Q 2525 409 2770 889 
Q 3016 1369 3016 2328 
Q 3016 3291 2770 3770 
Q 2525 4250 2034 4250 
z
M 2034 4750 
Q 2819 4750 3233 4129 
Q 3647 3509 3647 2328 
Q 3647 1150 3233 529 
Q 2819 -91 2034 -91 
Q 1250 -91 836 529 
Q 422 1150 422 2328 
Q 422 3509 836 4129 
Q 1250 4750 2034 4750 
z
" transform="scale(0.015625)"/>
       </defs>
       <use xlink:href="#DejaVuSans-30"/>
      </g>
     </g>
    </g>
    <g id="ytick_2">
     <g id="line2d_9">
      <g>
       <use xlink:href="#m5a2db215e5" x="108" y="446.045446" style="stroke: #000000; stroke-width: 0.8"/>
      </g>
     </g>
     <g id="text_10">
      <!-- 100 -->
      <g transform="translate(81.9125 449.844664) scale(0.1 -0.1)">
       <defs>
        <path id="DejaVuSans-31" d="M 794 531 
L 1825 531 
L 1825 4091 
L 703 3866 
L 703 4441 
L 1819 4666 
L 2450 4666 
L 2450 531 
L 3481 531 
L 3481 0 
L 794 0 
L 794 531 
z
" transform="scale(0.015625)"/>
       </defs>
       <use xlink:href="#DejaVuSans-31"/>
       <use xlink:href="#DejaVuSans-30" x="63.623047"/>
       <use xlink:href="#DejaVuSans-30" x="127.246094"/>
      </g>
     </g>
    </g>
    <g id="ytick_3">
     <g id="line2d_10">
      <g>
       <use xlink:href="#m5a2db215e5" x="108" y="379.450891" style="stroke: #000000; stroke-width: 0.8"/>
      </g>
     </g>
     <g id="text_11">
      <!-- 200 -->
      <g transform="translate(81.9125 383.25011) scale(0.1 -0.1)">
       <defs>
        <path id="DejaVuSans-32" d="M 1228 531 
L 3431 531 
L 3431 0 
L 469 0 
L 469 531 
Q 828 903 1448 1529 
Q 2069 2156 2228 2338 
Q 2531 2678 2651 2914 
Q 2772 3150 2772 3378 
Q 2772 3750 2511 3984 
Q 2250 4219 1831 4219 
Q 1534 4219 1204 4116 
Q 875 4013 500 3803 
L 500 4441 
Q 881 4594 1212 4672 
Q 1544 4750 1819 4750 
Q 2544 4750 2975 4387 
Q 3406 4025 3406 3419 
Q 3406 3131 3298 2873 
Q 3191 2616 2906 2266 
Q 2828 2175 2409 1742 
Q 1991 1309 1228 531 
z
" transform="scale(0.015625)"/>
       </defs>
       <use xlink:href="#DejaVuSans-32"/>
       <use xlink:href="#DejaVuSans-30" x="63.623047"/>
       <use xlink:href="#DejaVuSans-30" x="127.246094"/>
      </g>
     </g>
    </g>
    <g id="ytick_4">
     <g id="line2d_11">
      <g>
       <use xlink:href="#m5a2db215e5" x="108" y="312.856337" style="stroke: #000000; stroke-width: 0.8"/>
      </g>
     </g>
     <g id="text_12">
      <!-- 300 -->
      <g transform="translate(81.9125 316.655556) scale(0.1 -0.1)">
       <defs>
        <path id="DejaVuSans-33" d="M 2597 2516 
Q 3050 2419 3304 2112 
Q 3559 1806 3559 1356 
Q 3559 666 3084 287 
Q 2609 -91 1734 -91 
Q 1441 -91 1130 -33 
Q 819 25 488 141 
L 488 750 
Q 750 597 1062 519 
Q 1375 441 1716 441 
Q 2309 441 2620 675 
Q 2931 909 2931 1356 
Q 2931 1769 2642 2001 
Q 2353 2234 1838 2234 
L 1294 2234 
L 1294 2753 
L 1863 2753 
Q 2328 2753 2575 2939 
Q 2822 3125 2822 3475 
Q 2822 3834 2567 4026 
Q 2313 4219 1838 4219 
Q 1578 4219 1281 4162 
Q 984 4106 628 3988 
L 628 4550 
Q 988 4650 1302 4700 
Q 1616 4750 1894 4750 
Q 2613 4750 3031 4423 
Q 3450 4097 3450 3541 
Q 3450 3153 3228 2886 
Q 3006 2619 2597 2516 
z
" transform="scale(0.015625)"/>
       </defs>
       <use xlink:href="#DejaVuSans-33"/>
       <use xlink:href="#DejaVuSans-30" x="63.623047"/>
       <use xlink:href="#DejaVuSans-30" x="127.246094"/>
      </g>
     </g>
    </g>
    <g id="ytick_5">
     <g id="line2d_12">
      <g>
       <use xlink:href="#m5a2db215e5" x="108" y="246.261782" style="stroke: #000000; stroke-width: 0.8"/>
      </g>
     </g>
     <g id="text_13">
      <!-- 400 -->
      <g transform="translate(81.9125 250.061001) scale(0.1 -0.1)">
       <defs>
        <path id="DejaVuSans-34" d="M 2419 4116 
L 825 1625 
L 2419 1625 
L 2419 4116 
z
M 2253 4666 
L 3047 4666 
L 3047 1625 
L 3713 1625 
L 3713 1100 
L 3047 1100 
L 3047 0 
L 2419 0 
L 2419 1100 
L 313 1100 
L 313 1709 
L 2253 4666 
z
" transform="scale(0.015625)"/>
       </defs>
       <use xlink:href="#DejaVuSans-34"/>
       <use xlink:href="#DejaVuSans-30" x="63.623047"/>
       <use xlink:href="#DejaVuSans-30" x="127.246094"/>
      </g>
     </g>
    </g>
    <g id="ytick_6">
     <g id="line2d_13">
      <g>
       <use xlink:href="#m5a2db215e5" x="108" y="179.667228" style="stroke: #000000; stroke-width: 0.8"/>
      </g>
     </g>
     <g id="text_14">
      <!-- 500 -->
      <g transform="translate(81.9125 183.466447) scale(0.1 -0.1)">
       <defs>
        <path id="DejaVuSans-35" d="M 691 4666 
L 3169 4666 
L 3169 4134 
L 1269 4134 
L 1269 2991 
Q 1406 3038 1543 3061 
Q 1681 3084 1819 3084 
Q 2600 3084 3056 2656 
Q 3513 2228 3513 1497 
Q 3513 744 3044 326 
Q 2575 -91 1722 -91 
Q 1428 -91 1123 -41 
Q 819 9 494 109 
L 494 744 
Q 775 591 1075 516 
Q 1375 441 1709 441 
Q 2250 441 2565 725 
Q 2881 1009 2881 1497 
Q 2881 1984 2565 2268 
Q 2250 2553 1709 2553 
Q 1456 2553 1204 2497 
Q 953 2441 691 2322 
L 691 4666 
z
" transform="scale(0.015625)"/>
       </defs>
       <use xlink:href="#DejaVuSans-35"/>
       <use xlink:href="#DejaVuSans-30" x="63.623047"/>
       <use xlink:href="#DejaVuSans-30" x="127.246094"/>
      </g>
     </g>
    </g>
    <g id="ytick_7">
     <g id="line2d_14">
      <g>
       <use xlink:href="#m5a2db215e5" x="108" y="113.072674" style="stroke: #000000; stroke-width: 0.8"/>
      </g>
     </g>
     <g id="text_15">
      <!-- 600 -->
      <g transform="translate(81.9125 116.871892) scale(0.1 -0.1)">
       <defs>
        <path id="DejaVuSans-36" d="M 2113 2584 
Q 1688 2584 1439 2293 
Q 1191 2003 1191 1497 
Q 1191 994 1439 701 
Q 1688 409 2113 409 
Q 2538 409 2786 701 
Q 3034 994 3034 1497 
Q 3034 2003 2786 2293 
Q 2538 2584 2113 2584 
z
M 3366 4563 
L 3366 3988 
Q 3128 4100 2886 4159 
Q 2644 4219 2406 4219 
Q 1781 4219 1451 3797 
Q 1122 3375 1075 2522 
Q 1259 2794 1537 2939 
Q 1816 3084 2150 3084 
Q 2853 3084 3261 2657 
Q 3669 2231 3669 1497 
Q 3669 778 3244 343 
Q 2819 -91 2113 -91 
Q 1303 -91 875 529 
Q 447 1150 447 2328 
Q 447 3434 972 4092 
Q 1497 4750 2381 4750 
Q 2619 4750 2861 4703 
Q 3103 4656 3366 4563 
z
" transform="scale(0.015625)"/>
       </defs>
       <use xlink:href="#DejaVuSans-36"/>
       <use xlink:href="#DejaVuSans-30" x="63.623047"/>
       <use xlink:href="#DejaVuSans-30" x="127.246094"/>
      </g>
     </g>
    </g>
    <g id="text_16">
     <!-- Count -->
     <g transform="translate(75.832812 305.728437) rotate(-90) scale(0.1 -0.1)">
      <defs>
       <path id="DejaVuSans-43" d="M 4122 4306 
L 4122 3641 
Q 3803 3938 3442 4084 
Q 3081 4231 2675 4231 
Q 1875 4231 1450 3742 
Q 1025 3253 1025 2328 
Q 1025 1406 1450 917 
Q 1875 428 2675 428 
Q 3081 428 3442 575 
Q 3803 722 4122 1019 
L 4122 359 
Q 3791 134 3420 21 
Q 3050 -91 2638 -91 
Q 1578 -91 968 557 
Q 359 1206 359 2328 
Q 359 3453 968 4101 
Q 1578 4750 2638 4750 
Q 3056 4750 3426 4639 
Q 3797 4528 4122 4306 
z
" transform="scale(0.015625)"/>
      </defs>
      <use xlink:href="#DejaVuSans-43"/>
      <use xlink:href="#DejaVuSans-6f" x="69.824219"/>
      <use xlink:href="#DejaVuSans-75" x="131.005859"/>
      <use xlink:href="#DejaVuSans-6e" x="194.384766"/>
      <use xlink:href="#DejaVuSans-74" x="257.763672"/>
     </g>
    </g>
   </g>
   <g id="line2d_15">
    <path d="M 181.916883 439.767684 
L 184.538824 440.060489 
L 187.160765 441.037609 
L 189.782706 442.661927 
L 192.404647 444.876053 
L 195.026587 447.60464 
L 197.648528 450.757488 
L 200.270469 454.23322 
L 205.514351 461.716446 
L 210.758233 469.175917 
L 213.380174 472.640642 
L 216.002114 475.811442 
L 218.624055 478.617046 
L 221.245996 481.001659 
L 223.867937 482.926006 
L 226.489878 484.367774 
L 229.111819 485.321496 
L 231.73376 485.797924 
L 234.355701 485.822975 
L 236.977641 485.436274 
L 239.599582 484.689368 
L 242.221523 483.643638 
L 244.843464 482.367963 
L 250.087346 479.424314 
L 255.331228 476.458872 
L 257.953168 475.143071 
L 260.575109 474.017275 
L 263.19705 473.126863 
L 265.818991 472.503632 
L 268.440932 472.164055 
L 271.062873 472.108007 
L 273.684814 472.318034 
L 276.306755 472.759197 
L 281.550636 474.110953 
L 286.794518 475.565086 
L 289.416459 476.088497 
L 292.0384 476.330135 
L 294.660341 476.175591 
L 297.282282 475.510997 
L 299.904222 474.227081 
L 302.526163 472.223446 
L 305.148104 469.412983 
L 307.770045 465.726309 
L 310.391986 461.116104 
L 313.013927 455.561161 
L 315.635868 449.06996 
L 318.257809 441.683514 
L 320.879749 433.477261 
L 323.50169 424.561736 
L 328.745572 405.214295 
L 336.611395 375.436376 
L 339.233336 366.24806 
L 341.855276 357.835964 
L 344.477217 350.429232 
L 347.099158 344.232216 
L 349.721099 339.414492 
L 352.34304 336.101927 
L 354.964981 334.369313 
L 357.586922 334.235012 
L 360.208862 335.657927 
L 362.830803 338.536994 
L 365.452744 342.713218 
L 368.074685 347.974158 
L 370.696626 354.060626 
L 381.184389 380.359301 
L 383.80633 385.719249 
L 386.428271 389.926286 
L 389.050212 392.686273 
L 391.672153 393.744805 
L 394.294094 392.896685 
L 396.916035 389.994216 
L 399.537976 384.954131 
L 402.159916 377.762934 
L 404.781857 368.480422 
L 407.403798 357.241135 
L 410.025739 344.253471 
L 412.64768 329.79624 
L 415.269621 314.212459 
L 425.757384 249.13767 
L 428.379325 234.533008 
L 431.001266 221.524665 
L 433.623207 210.521399 
L 436.245148 201.870316 
L 438.867089 195.840871 
L 441.48903 192.611733 
L 444.11097 192.261265 
L 446.732911 194.762197 
L 449.354852 199.980803 
L 451.976793 207.680641 
L 454.598734 217.530637 
L 457.220675 229.117079 
L 459.842616 241.958853 
L 467.708438 282.576414 
L 470.330379 294.928311 
L 472.95232 305.778004 
L 475.574261 314.640142 
L 478.196202 321.09279 
L 480.818143 324.791594 
L 483.440084 325.481621 
L 486.062024 323.006653 
L 488.683965 317.315812 
L 491.305906 308.467307 
L 493.927847 296.629166 
L 496.549788 282.076736 
L 499.171729 265.186797 
L 501.79367 246.428152 
L 507.037551 205.558968 
L 512.281433 164.48498 
L 514.903374 145.547594 
L 517.525315 128.544961 
L 520.147256 114.069168 
L 522.769197 102.636962 
L 525.391138 94.669387 
L 528.013078 90.47534 
L 530.635019 90.24 
L 533.25696 94.018864 
L 535.878901 101.737757 
L 538.500842 113.198819 
L 541.122783 128.092071 
L 543.744724 146.011834 
L 546.366664 166.476925 
L 548.988605 188.953396 
L 554.232487 237.684019 
L 562.09831 312.07249 
L 564.720251 335.33186 
L 567.342191 357.222951 
L 569.964132 377.49777 
L 572.586073 395.984547 
L 575.208014 412.584212 
L 577.829955 427.264146 
L 580.451896 440.04995 
L 583.073837 451.015945 
L 585.695778 460.27509 
L 588.317718 467.968931 
L 590.939659 474.258055 
L 593.5616 479.313427 
L 596.183541 483.308837 
L 598.805482 486.414598 
L 601.427423 488.792513 
L 604.049364 490.592071 
L 606.671305 491.947781 
L 609.293245 492.977497 
L 611.915186 493.781604 
L 617.159068 495.027141 
L 625.024891 496.739125 
L 632.890713 498.72736 
L 640.756536 500.796581 
L 646.000418 501.935459 
L 648.622359 502.359463 
L 651.244299 502.657118 
L 653.86624 502.810243 
L 656.488181 502.804766 
L 659.110122 502.631398 
L 661.732063 502.286143 
L 664.354004 501.770646 
L 666.975945 501.092368 
L 669.597886 500.264575 
L 674.841767 498.241166 
L 682.70759 494.711769 
L 687.951472 492.432733 
L 690.573413 491.425482 
L 693.195353 490.552285 
L 695.817294 489.843213 
L 698.439235 489.323404 
L 701.061176 489.012062 
L 703.683117 488.921705 
L 703.683117 488.921705 
" clip-path="url(#p68a1281a90)" style="fill: none; stroke: #1f77b4; stroke-width: 1.5; stroke-linecap: square"/>
   </g>
   <g id="patch_10">
    <path d="M 108 512.64 
L 108 69.12 
" style="fill: none; stroke: #000000; stroke-width: 0.8; stroke-linejoin: miter; stroke-linecap: square"/>
   </g>
   <g id="patch_11">
    <path d="M 777.6 512.64 
L 777.6 69.12 
" style="fill: none; stroke: #000000; stroke-width: 0.8; stroke-linejoin: miter; stroke-linecap: square"/>
   </g>
   <g id="patch_12">
    <path d="M 108 512.64 
L 777.6 512.64 
" style="fill: none; stroke: #000000; stroke-width: 0.8; stroke-linejoin: miter; stroke-linecap: square"/>
   </g>
   <g id="patch_13">
    <path d="M 108 69.12 
L 777.6 69.12 
" style="fill: none; stroke: #000000; stroke-width: 0.8; stroke-linejoin: miter; stroke-linecap: square"/>
   </g>
   <g id="text_17">
    <!-- What is your opinion on Firefly -->
    <g transform="translate(351.616875 63.12) scale(0.12 -0.12)">
     <defs>
      <path id="DejaVuSans-57" d="M 213 4666 
L 850 4666 
L 1831 722 
L 2809 4666 
L 3519 4666 
L 4500 722 
L 5478 4666 
L 6119 4666 
L 4947 0 
L 4153 0 
L 3169 4050 
L 2175 0 
L 1381 0 
L 213 4666 
z
" transform="scale(0.015625)"/>
      <path id="DejaVuSans-79" d="M 2059 -325 
Q 1816 -950 1584 -1140 
Q 1353 -1331 966 -1331 
L 506 -1331 
L 506 -850 
L 844 -850 
Q 1081 -850 1212 -737 
Q 1344 -625 1503 -206 
L 1606 56 
L 191 3500 
L 800 3500 
L 1894 763 
L 2988 3500 
L 3597 3500 
L 2059 -325 
z
" transform="scale(0.015625)"/>
      <path id="DejaVuSans-70" d="M 1159 525 
L 1159 -1331 
L 581 -1331 
L 581 3500 
L 1159 3500 
L 1159 2969 
Q 1341 3281 1617 3432 
Q 1894 3584 2278 3584 
Q 2916 3584 3314 3078 
Q 3713 2572 3713 1747 
Q 3713 922 3314 415 
Q 2916 -91 2278 -91 
Q 1894 -91 1617 61 
Q 1341 213 1159 525 
z
M 3116 1747 
Q 3116 2381 2855 2742 
Q 2594 3103 2138 3103 
Q 1681 3103 1420 2742 
Q 1159 2381 1159 1747 
Q 1159 1113 1420 752 
Q 1681 391 2138 391 
Q 2594 391 2855 752 
Q 3116 1113 3116 1747 
z
" transform="scale(0.015625)"/>
      <path id="DejaVuSans-46" d="M 628 4666 
L 3309 4666 
L 3309 4134 
L 1259 4134 
L 1259 2759 
L 3109 2759 
L 3109 2228 
L 1259 2228 
L 1259 0 
L 628 0 
L 628 4666 
z
" transform="scale(0.015625)"/>
     </defs>
     <use xlink:href="#DejaVuSans-57"/>
     <use xlink:href="#DejaVuSans-68" x="98.876953"/>
     <use xlink:href="#DejaVuSans-61" x="162.255859"/>
     <use xlink:href="#DejaVuSans-74" x="223.535156"/>
     <use xlink:href="#DejaVuSans-20" x="262.744141"/>
     <use xlink:href="#DejaVuSans-69" x="294.53125"/>
     <use xlink:href="#DejaVuSans-73" x="322.314453"/>
     <use xlink:href="#DejaVuSans-20" x="374.414062"/>
     <use xlink:href="#DejaVuSans-79" x="406.201172"/>
     <use xlink:href="#DejaVuSans-6f" x="465.380859"/>
     <use xlink:href="#DejaVuSans-75" x="526.5625"/>
     <use xlink:href="#DejaVuSans-72" x="589.941406"/>
     <use xlink:href="#DejaVuSans-20" x="631.054688"/>
     <use xlink:href="#DejaVuSans-6f" x="662.841797"/>
     <use xlink:href="#DejaVuSans-70" x="724.023438"/>
     <use xlink:href="#DejaVuSans-69" x="787.5"/>
     <use xlink:href="#DejaVuSans-6e" x="815.283203"/>
     <use xlink:href="#DejaVuSans-69" x="878.662109"/>
     <use xlink:href="#DejaVuSans-6f" x="906.445312"/>
     <use xlink:href="#DejaVuSans-6e" x="967.626953"/>
     <use xlink:href="#DejaVuSans-20" x="1031.005859"/>
     <use xlink:href="#DejaVuSans-6f" x="1062.792969"/>
     <use xlink:href="#DejaVuSans-6e" x="1123.974609"/>
     <use xlink:href="#DejaVuSans-20" x="1187.353516"/>
     <use xlink:href="#DejaVuSans-46" x="1219.140625"/>
     <use xlink:href="#DejaVuSans-69" x="1269.410156"/>
     <use xlink:href="#DejaVuSans-72" x="1297.193359"/>
     <use xlink:href="#DejaVuSans-65" x="1336.056641"/>
     <use xlink:href="#DejaVuSans-66" x="1397.580078"/>
     <use xlink:href="#DejaVuSans-6c" x="1432.785156"/>
     <use xlink:href="#DejaVuSans-79" x="1460.568359"/>
    </g>
   </g>
  </g>
 </g>
 <defs>
  <clipPath id="p68a1281a90">
   <rect x="108" y="69.12" width="669.6" height="443.52"/>
  </clipPath>
 </defs>
</svg>
