<?xml version="1.0" encoding="utf-8" standalone="no"?>
<!DOCTYPE svg PUBLIC "-//W3C//DTD SVG 1.1//EN"
  "http://www.w3.org/Graphics/SVG/1.1/DTD/svg11.dtd">
<svg xmlns:xlink="http://www.w3.org/1999/xlink" width="864pt" height="576pt" viewBox="0 0 864 576" xmlns="http://www.w3.org/2000/svg" version="1.1">
 <metadata>
  <rdf:RDF xmlns:dc="http://purl.org/dc/elements/1.1/" xmlns:cc="http://creativecommons.org/ns#" xmlns:rdf="http://www.w3.org/1999/02/22-rdf-syntax-ns#">
   <cc:Work>
    <dc:type rdf:resource="http://purl.org/dc/dcmitype/StillImage"/>
    <dc:date>2024-06-10T00:25:04.286262</dc:date>
    <dc:format>image/svg+xml</dc:format>
    <dc:creator>
     <cc:Agent>
      <dc:title>Matplotlib v3.9.0, https://matplotlib.org/</dc:title>
     </cc:Agent>
    </dc:creator>
   </cc:Work>
  </rdf:RDF>
 </metadata>
 <defs>
  <style type="text/css">*{stroke-linejoin: round; stroke-linecap: butt}</style>
 </defs>
 <g id="figure_1">
  <g id="patch_1">
   <path d="M 0 576 
L 864 576 
L 864 0 
L 0 0 
z
" style="fill: #ffffff"/>
  </g>
  <g id="axes_1">
   <g id="patch_2">
    <path d="M 620.208 290.88 
C 620.208 259.689047 611.982253 229.0428 596.363578 202.04405 
C 580.744903 175.045299 558.278815 152.637036 531.239903 137.087991 
C 504.200991 121.538947 473.533648 113.392206 442.342798 113.472589 
C 411.151949 113.552972 380.527003 121.857671 353.568593 137.545873 
L 442.8 290.88 
z
" style="fill: #1f77b4"/>
   </g>
   <g id="patch_3">
    <path d="M 353.568593 137.545873 
C 328.283067 152.260556 307.02559 173.003846 291.696302 197.921564 
C 276.367014 222.839282 267.436688 251.166188 265.703577 280.37023 
C 263.970466 309.574272 269.487795 338.758574 281.762388 365.314441 
C 294.036981 391.870309 312.691877 414.982194 336.059573 432.584198 
L 442.8 290.88 
z
" style="fill: #ff7f0e"/>
   </g>
   <g id="patch_4">
    <path d="M 336.059573 432.584198 
C 356.959742 448.327507 381.086387 459.253684 406.705276 464.57735 
C 432.324165 469.901016 458.806397 469.491485 484.24842 463.378194 
C 509.690443 457.264903 533.4677 445.597923 553.871071 429.21588 
C 574.274442 412.833837 590.80306 392.138884 602.268843 368.618579 
L 442.8 290.88 
z
" style="fill: #2ca02c"/>
   </g>
   <g id="patch_5">
    <path d="M 602.268843 368.618579 
C 605.208052 362.58924 607.802953 356.398057 610.041045 350.074859 
C 612.279137 343.751662 614.156819 337.30662 615.665045 330.770785 
L 442.8 290.88 
z
" style="fill: #d62728"/>
   </g>
   <g id="patch_6">
    <path d="M 615.665045 330.770785 
C 617.173271 324.23495 618.309615 317.618835 619.068603 310.954315 
C 619.82759 304.289795 620.208 297.587591 620.208 290.879992 
L 442.8 290.88 
z
" style="fill: #9467bd"/>
   </g>
   <g id="matplotlib.axis_1"/>
   <g id="matplotlib.axis_2"/>
   <g id="text_1">
    <!-- positive -->
    <g transform="translate(540.083894 124.468165) scale(0.1 -0.1)">
     <defs>
      <path id="DejaVuSans-70" d="M 1159 525 
L 1159 -1331 
L 581 -1331 
L 581 3500 
L 1159 3500 
L 1159 2969 
Q 1341 3281 1617 3432 
Q 1894 3584 2278 3584 
Q 2916 3584 3314 3078 
Q 3713 2572 3713 1747 
Q 3713 922 3314 415 
Q 2916 -91 2278 -91 
Q 1894 -91 1617 61 
Q 1341 213 1159 525 
z
M 3116 1747 
Q 3116 2381 2855 2742 
Q 2594 3103 2138 3103 
Q 1681 3103 1420 2742 
Q 1159 2381 1159 1747 
Q 1159 1113 1420 752 
Q 1681 391 2138 391 
Q 2594 391 2855 752 
Q 3116 1113 3116 1747 
z
" transform="scale(0.015625)"/>
      <path id="DejaVuSans-6f" d="M 1959 3097 
Q 1497 3097 1228 2736 
Q 959 2375 959 1747 
Q 959 1119 1226 758 
Q 1494 397 1959 397 
Q 2419 397 2687 759 
Q 2956 1122 2956 1747 
Q 2956 2369 2687 2733 
Q 2419 3097 1959 3097 
z
M 1959 3584 
Q 2709 3584 3137 3096 
Q 3566 2609 3566 1747 
Q 3566 888 3137 398 
Q 2709 -91 1959 -91 
Q 1206 -91 779 398 
Q 353 888 353 1747 
Q 353 2609 779 3096 
Q 1206 3584 1959 3584 
z
" transform="scale(0.015625)"/>
      <path id="DejaVuSans-73" d="M 2834 3397 
L 2834 2853 
Q 2591 2978 2328 3040 
Q 2066 3103 1784 3103 
Q 1356 3103 1142 2972 
Q 928 2841 928 2578 
Q 928 2378 1081 2264 
Q 1234 2150 1697 2047 
L 1894 2003 
Q 2506 1872 2764 1633 
Q 3022 1394 3022 966 
Q 3022 478 2636 193 
Q 2250 -91 1575 -91 
Q 1294 -91 989 -36 
Q 684 19 347 128 
L 347 722 
Q 666 556 975 473 
Q 1284 391 1588 391 
Q 1994 391 2212 530 
Q 2431 669 2431 922 
Q 2431 1156 2273 1281 
Q 2116 1406 1581 1522 
L 1381 1569 
Q 847 1681 609 1914 
Q 372 2147 372 2553 
Q 372 3047 722 3315 
Q 1072 3584 1716 3584 
Q 2034 3584 2315 3537 
Q 2597 3491 2834 3397 
z
" transform="scale(0.015625)"/>
      <path id="DejaVuSans-69" d="M 603 3500 
L 1178 3500 
L 1178 0 
L 603 0 
L 603 3500 
z
M 603 4863 
L 1178 4863 
L 1178 4134 
L 603 4134 
L 603 4863 
z
" transform="scale(0.015625)"/>
      <path id="DejaVuSans-74" d="M 1172 4494 
L 1172 3500 
L 2356 3500 
L 2356 3053 
L 1172 3053 
L 1172 1153 
Q 1172 725 1289 603 
Q 1406 481 1766 481 
L 2356 481 
L 2356 0 
L 1766 0 
Q 1100 0 847 248 
Q 594 497 594 1153 
L 594 3053 
L 172 3053 
L 172 3500 
L 594 3500 
L 594 4494 
L 1172 4494 
z
" transform="scale(0.015625)"/>
      <path id="DejaVuSans-76" d="M 191 3500 
L 800 3500 
L 1894 563 
L 2988 3500 
L 3597 3500 
L 2284 0 
L 1503 0 
L 191 3500 
z
" transform="scale(0.015625)"/>
      <path id="DejaVuSans-65" d="M 3597 1894 
L 3597 1613 
L 953 1613 
Q 991 1019 1311 708 
Q 1631 397 2203 397 
Q 2534 397 2845 478 
Q 3156 559 3463 722 
L 3463 178 
Q 3153 47 2828 -22 
Q 2503 -91 2169 -91 
Q 1331 -91 842 396 
Q 353 884 353 1716 
Q 353 2575 817 3079 
Q 1281 3584 2069 3584 
Q 2775 3584 3186 3129 
Q 3597 2675 3597 1894 
z
M 3022 2063 
Q 3016 2534 2758 2815 
Q 2500 3097 2075 3097 
Q 1594 3097 1305 2825 
Q 1016 2553 972 2059 
L 3022 2063 
z
" transform="scale(0.015625)"/>
     </defs>
     <use xlink:href="#DejaVuSans-70"/>
     <use xlink:href="#DejaVuSans-6f" x="63.476562"/>
     <use xlink:href="#DejaVuSans-73" x="124.658203"/>
     <use xlink:href="#DejaVuSans-69" x="176.757812"/>
     <use xlink:href="#DejaVuSans-74" x="204.541016"/>
     <use xlink:href="#DejaVuSans-69" x="243.75"/>
     <use xlink:href="#DejaVuSans-76" x="271.533203"/>
     <use xlink:href="#DejaVuSans-65" x="330.712891"/>
    </g>
   </g>
   <g id="text_2">
    <!-- 33% -->
    <g transform="translate(484.750661 201.36417) scale(0.1 -0.1)">
     <defs>
      <path id="DejaVuSans-33" d="M 2597 2516 
Q 3050 2419 3304 2112 
Q 3559 1806 3559 1356 
Q 3559 666 3084 287 
Q 2609 -91 1734 -91 
Q 1441 -91 1130 -33 
Q 819 25 488 141 
L 488 750 
Q 750 597 1062 519 
Q 1375 441 1716 441 
Q 2309 441 2620 675 
Q 2931 909 2931 1356 
Q 2931 1769 2642 2001 
Q 2353 2234 1838 2234 
L 1294 2234 
L 1294 2753 
L 1863 2753 
Q 2328 2753 2575 2939 
Q 2822 3125 2822 3475 
Q 2822 3834 2567 4026 
Q 2313 4219 1838 4219 
Q 1578 4219 1281 4162 
Q 984 4106 628 3988 
L 628 4550 
Q 988 4650 1302 4700 
Q 1616 4750 1894 4750 
Q 2613 4750 3031 4423 
Q 3450 4097 3450 3541 
Q 3450 3153 3228 2886 
Q 3006 2619 2597 2516 
z
" transform="scale(0.015625)"/>
      <path id="DejaVuSans-25" d="M 4653 2053 
Q 4381 2053 4226 1822 
Q 4072 1591 4072 1178 
Q 4072 772 4226 539 
Q 4381 306 4653 306 
Q 4919 306 5073 539 
Q 5228 772 5228 1178 
Q 5228 1588 5073 1820 
Q 4919 2053 4653 2053 
z
M 4653 2450 
Q 5147 2450 5437 2106 
Q 5728 1763 5728 1178 
Q 5728 594 5436 251 
Q 5144 -91 4653 -91 
Q 4153 -91 3862 251 
Q 3572 594 3572 1178 
Q 3572 1766 3864 2108 
Q 4156 2450 4653 2450 
z
M 1428 4353 
Q 1159 4353 1004 4120 
Q 850 3888 850 3481 
Q 850 3069 1003 2837 
Q 1156 2606 1428 2606 
Q 1700 2606 1854 2837 
Q 2009 3069 2009 3481 
Q 2009 3884 1853 4118 
Q 1697 4353 1428 4353 
z
M 4250 4750 
L 4750 4750 
L 1831 -91 
L 1331 -91 
L 4250 4750 
z
M 1428 4750 
Q 1922 4750 2215 4408 
Q 2509 4066 2509 3481 
Q 2509 2891 2217 2550 
Q 1925 2209 1428 2209 
Q 931 2209 642 2551 
Q 353 2894 353 3481 
Q 353 4063 643 4406 
Q 934 4750 1428 4750 
z
" transform="scale(0.015625)"/>
     </defs>
     <use xlink:href="#DejaVuSans-33"/>
     <use xlink:href="#DejaVuSans-33" x="63.623047"/>
     <use xlink:href="#DejaVuSans-25" x="127.246094"/>
    </g>
   </g>
   <g id="text_3">
    <!-- negative -->
    <g transform="translate(204.256434 282.078628) scale(0.1 -0.1)">
     <defs>
      <path id="DejaVuSans-6e" d="M 3513 2113 
L 3513 0 
L 2938 0 
L 2938 2094 
Q 2938 2591 2744 2837 
Q 2550 3084 2163 3084 
Q 1697 3084 1428 2787 
Q 1159 2491 1159 1978 
L 1159 0 
L 581 0 
L 581 3500 
L 1159 3500 
L 1159 2956 
Q 1366 3272 1645 3428 
Q 1925 3584 2291 3584 
Q 2894 3584 3203 3211 
Q 3513 2838 3513 2113 
z
" transform="scale(0.015625)"/>
      <path id="DejaVuSans-67" d="M 2906 1791 
Q 2906 2416 2648 2759 
Q 2391 3103 1925 3103 
Q 1463 3103 1205 2759 
Q 947 2416 947 1791 
Q 947 1169 1205 825 
Q 1463 481 1925 481 
Q 2391 481 2648 825 
Q 2906 1169 2906 1791 
z
M 3481 434 
Q 3481 -459 3084 -895 
Q 2688 -1331 1869 -1331 
Q 1566 -1331 1297 -1286 
Q 1028 -1241 775 -1147 
L 775 -588 
Q 1028 -725 1275 -790 
Q 1522 -856 1778 -856 
Q 2344 -856 2625 -561 
Q 2906 -266 2906 331 
L 2906 616 
Q 2728 306 2450 153 
Q 2172 0 1784 0 
Q 1141 0 747 490 
Q 353 981 353 1791 
Q 353 2603 747 3093 
Q 1141 3584 1784 3584 
Q 2172 3584 2450 3431 
Q 2728 3278 2906 2969 
L 2906 3500 
L 3481 3500 
L 3481 434 
z
" transform="scale(0.015625)"/>
      <path id="DejaVuSans-61" d="M 2194 1759 
Q 1497 1759 1228 1600 
Q 959 1441 959 1056 
Q 959 750 1161 570 
Q 1363 391 1709 391 
Q 2188 391 2477 730 
Q 2766 1069 2766 1631 
L 2766 1759 
L 2194 1759 
z
M 3341 1997 
L 3341 0 
L 2766 0 
L 2766 531 
Q 2569 213 2275 61 
Q 1981 -91 1556 -91 
Q 1019 -91 701 211 
Q 384 513 384 1019 
Q 384 1609 779 1909 
Q 1175 2209 1959 2209 
L 2766 2209 
L 2766 2266 
Q 2766 2663 2505 2880 
Q 2244 3097 1772 3097 
Q 1472 3097 1187 3025 
Q 903 2953 641 2809 
L 641 3341 
Q 956 3463 1253 3523 
Q 1550 3584 1831 3584 
Q 2591 3584 2966 3190 
Q 3341 2797 3341 1997 
z
" transform="scale(0.015625)"/>
     </defs>
     <use xlink:href="#DejaVuSans-6e"/>
     <use xlink:href="#DejaVuSans-65" x="63.378906"/>
     <use xlink:href="#DejaVuSans-67" x="124.902344"/>
     <use xlink:href="#DejaVuSans-61" x="188.378906"/>
     <use xlink:href="#DejaVuSans-74" x="249.658203"/>
     <use xlink:href="#DejaVuSans-69" x="288.867188"/>
     <use xlink:href="#DejaVuSans-76" x="316.650391"/>
     <use xlink:href="#DejaVuSans-65" x="375.830078"/>
    </g>
   </g>
   <g id="text_4">
    <!-- 31% -->
    <g transform="translate(325.428865 287.333513) scale(0.1 -0.1)">
     <defs>
      <path id="DejaVuSans-31" d="M 794 531 
L 1825 531 
L 1825 4091 
L 703 3866 
L 703 4441 
L 1819 4666 
L 2450 4666 
L 2450 531 
L 3481 531 
L 3481 0 
L 794 0 
L 794 531 
z
" transform="scale(0.015625)"/>
     </defs>
     <use xlink:href="#DejaVuSans-33"/>
     <use xlink:href="#DejaVuSans-31" x="63.623047"/>
     <use xlink:href="#DejaVuSans-25" x="127.246094"/>
    </g>
   </g>
   <g id="text_5">
    <!-- neutral -->
    <g transform="translate(488.393262 483.387388) scale(0.1 -0.1)">
     <defs>
      <path id="DejaVuSans-75" d="M 544 1381 
L 544 3500 
L 1119 3500 
L 1119 1403 
Q 1119 906 1312 657 
Q 1506 409 1894 409 
Q 2359 409 2629 706 
Q 2900 1003 2900 1516 
L 2900 3500 
L 3475 3500 
L 3475 0 
L 2900 0 
L 2900 538 
Q 2691 219 2414 64 
Q 2138 -91 1772 -91 
Q 1169 -91 856 284 
Q 544 659 544 1381 
z
M 1991 3584 
L 1991 3584 
z
" transform="scale(0.015625)"/>
      <path id="DejaVuSans-72" d="M 2631 2963 
Q 2534 3019 2420 3045 
Q 2306 3072 2169 3072 
Q 1681 3072 1420 2755 
Q 1159 2438 1159 1844 
L 1159 0 
L 581 0 
L 581 3500 
L 1159 3500 
L 1159 2956 
Q 1341 3275 1631 3429 
Q 1922 3584 2338 3584 
Q 2397 3584 2469 3576 
Q 2541 3569 2628 3553 
L 2631 2963 
z
" transform="scale(0.015625)"/>
      <path id="DejaVuSans-6c" d="M 603 4863 
L 1178 4863 
L 1178 0 
L 603 0 
L 603 4863 
z
" transform="scale(0.015625)"/>
     </defs>
     <use xlink:href="#DejaVuSans-6e"/>
     <use xlink:href="#DejaVuSans-65" x="63.378906"/>
     <use xlink:href="#DejaVuSans-75" x="124.902344"/>
     <use xlink:href="#DejaVuSans-74" x="188.28125"/>
     <use xlink:href="#DejaVuSans-72" x="227.490234"/>
     <use xlink:href="#DejaVuSans-61" x="268.603516"/>
     <use xlink:href="#DejaVuSans-6c" x="329.882812"/>
    </g>
   </g>
   <g id="text_6">
    <!-- 28% -->
    <g transform="translate(456.555771 397.138291) scale(0.1 -0.1)">
     <defs>
      <path id="DejaVuSans-32" d="M 1228 531 
L 3431 531 
L 3431 0 
L 469 0 
L 469 531 
Q 828 903 1448 1529 
Q 2069 2156 2228 2338 
Q 2531 2678 2651 2914 
Q 2772 3150 2772 3378 
Q 2772 3750 2511 3984 
Q 2250 4219 1831 4219 
Q 1534 4219 1204 4116 
Q 875 4013 500 3803 
L 500 4441 
Q 881 4594 1212 4672 
Q 1544 4750 1819 4750 
Q 2544 4750 2975 4387 
Q 3406 4025 3406 3419 
Q 3406 3131 3298 2873 
Q 3191 2616 2906 2266 
Q 2828 2175 2409 1742 
Q 1991 1309 1228 531 
z
" transform="scale(0.015625)"/>
      <path id="DejaVuSans-38" d="M 2034 2216 
Q 1584 2216 1326 1975 
Q 1069 1734 1069 1313 
Q 1069 891 1326 650 
Q 1584 409 2034 409 
Q 2484 409 2743 651 
Q 3003 894 3003 1313 
Q 3003 1734 2745 1975 
Q 2488 2216 2034 2216 
z
M 1403 2484 
Q 997 2584 770 2862 
Q 544 3141 544 3541 
Q 544 4100 942 4425 
Q 1341 4750 2034 4750 
Q 2731 4750 3128 4425 
Q 3525 4100 3525 3541 
Q 3525 3141 3298 2862 
Q 3072 2584 2669 2484 
Q 3125 2378 3379 2068 
Q 3634 1759 3634 1313 
Q 3634 634 3220 271 
Q 2806 -91 2034 -91 
Q 1263 -91 848 271 
Q 434 634 434 1313 
Q 434 1759 690 2068 
Q 947 2378 1403 2484 
z
M 1172 3481 
Q 1172 3119 1398 2916 
Q 1625 2713 2034 2713 
Q 2441 2713 2670 2916 
Q 2900 3119 2900 3481 
Q 2900 3844 2670 4047 
Q 2441 4250 2034 4250 
Q 1625 4250 1398 4047 
Q 1172 3844 1172 3481 
z
" transform="scale(0.015625)"/>
     </defs>
     <use xlink:href="#DejaVuSans-32"/>
     <use xlink:href="#DejaVuSans-38" x="63.623047"/>
     <use xlink:href="#DejaVuSans-25" x="127.246094"/>
    </g>
   </g>
   <g id="text_7">
    <!-- less positive -->
    <g transform="translate(626.765149 358.75372) scale(0.1 -0.1)">
     <defs>
      <path id="DejaVuSans-20" transform="scale(0.015625)"/>
     </defs>
     <use xlink:href="#DejaVuSans-6c"/>
     <use xlink:href="#DejaVuSans-65" x="27.783203"/>
     <use xlink:href="#DejaVuSans-73" x="89.306641"/>
     <use xlink:href="#DejaVuSans-73" x="141.40625"/>
     <use xlink:href="#DejaVuSans-20" x="193.505859"/>
     <use xlink:href="#DejaVuSans-70" x="225.292969"/>
     <use xlink:href="#DejaVuSans-6f" x="288.769531"/>
     <use xlink:href="#DejaVuSans-73" x="349.951172"/>
     <use xlink:href="#DejaVuSans-69" x="402.050781"/>
     <use xlink:href="#DejaVuSans-74" x="429.833984"/>
     <use xlink:href="#DejaVuSans-69" x="469.042969"/>
     <use xlink:href="#DejaVuSans-76" x="496.826172"/>
     <use xlink:href="#DejaVuSans-65" x="556.005859"/>
    </g>
   </g>
   <g id="text_8">
    <!-- 4% -->
    <g transform="translate(535.212596 329.156291) scale(0.1 -0.1)">
     <defs>
      <path id="DejaVuSans-34" d="M 2419 4116 
L 825 1625 
L 2419 1625 
L 2419 4116 
z
M 2253 4666 
L 3047 4666 
L 3047 1625 
L 3713 1625 
L 3713 1100 
L 3047 1100 
L 3047 0 
L 2419 0 
L 2419 1100 
L 313 1100 
L 313 1709 
L 2253 4666 
z
" transform="scale(0.015625)"/>
     </defs>
     <use xlink:href="#DejaVuSans-34"/>
     <use xlink:href="#DejaVuSans-25" x="63.623047"/>
    </g>
   </g>
   <g id="text_9">
    <!-- less negative -->
    <g transform="translate(636.695463 315.721121) scale(0.1 -0.1)">
     <use xlink:href="#DejaVuSans-6c"/>
     <use xlink:href="#DejaVuSans-65" x="27.783203"/>
     <use xlink:href="#DejaVuSans-73" x="89.306641"/>
     <use xlink:href="#DejaVuSans-73" x="141.40625"/>
     <use xlink:href="#DejaVuSans-20" x="193.505859"/>
     <use xlink:href="#DejaVuSans-6e" x="225.292969"/>
     <use xlink:href="#DejaVuSans-65" x="288.671875"/>
     <use xlink:href="#DejaVuSans-67" x="350.195312"/>
     <use xlink:href="#DejaVuSans-61" x="413.671875"/>
     <use xlink:href="#DejaVuSans-74" x="474.951172"/>
     <use xlink:href="#DejaVuSans-69" x="514.160156"/>
     <use xlink:href="#DejaVuSans-76" x="541.943359"/>
     <use xlink:href="#DejaVuSans-65" x="601.123047"/>
    </g>
   </g>
   <g id="text_10">
    <!-- 4% -->
    <g transform="translate(540.62913 305.683964) scale(0.1 -0.1)">
     <use xlink:href="#DejaVuSans-34"/>
     <use xlink:href="#DejaVuSans-25" x="63.623047"/>
    </g>
   </g>
   <g id="text_11">
    <!-- What would you think if their relationship ended up explicitly friendly graph -->
    <g transform="translate(215.492812 63.12) scale(0.12 -0.12)">
     <defs>
      <path id="DejaVuSans-57" d="M 213 4666 
L 850 4666 
L 1831 722 
L 2809 4666 
L 3519 4666 
L 4500 722 
L 5478 4666 
L 6119 4666 
L 4947 0 
L 4153 0 
L 3169 4050 
L 2175 0 
L 1381 0 
L 213 4666 
z
" transform="scale(0.015625)"/>
      <path id="DejaVuSans-68" d="M 3513 2113 
L 3513 0 
L 2938 0 
L 2938 2094 
Q 2938 2591 2744 2837 
Q 2550 3084 2163 3084 
Q 1697 3084 1428 2787 
Q 1159 2491 1159 1978 
L 1159 0 
L 581 0 
L 581 4863 
L 1159 4863 
L 1159 2956 
Q 1366 3272 1645 3428 
Q 1925 3584 2291 3584 
Q 2894 3584 3203 3211 
Q 3513 2838 3513 2113 
z
" transform="scale(0.015625)"/>
      <path id="DejaVuSans-77" d="M 269 3500 
L 844 3500 
L 1563 769 
L 2278 3500 
L 2956 3500 
L 3675 769 
L 4391 3500 
L 4966 3500 
L 4050 0 
L 3372 0 
L 2619 2869 
L 1863 0 
L 1184 0 
L 269 3500 
z
" transform="scale(0.015625)"/>
      <path id="DejaVuSans-64" d="M 2906 2969 
L 2906 4863 
L 3481 4863 
L 3481 0 
L 2906 0 
L 2906 525 
Q 2725 213 2448 61 
Q 2172 -91 1784 -91 
Q 1150 -91 751 415 
Q 353 922 353 1747 
Q 353 2572 751 3078 
Q 1150 3584 1784 3584 
Q 2172 3584 2448 3432 
Q 2725 3281 2906 2969 
z
M 947 1747 
Q 947 1113 1208 752 
Q 1469 391 1925 391 
Q 2381 391 2643 752 
Q 2906 1113 2906 1747 
Q 2906 2381 2643 2742 
Q 2381 3103 1925 3103 
Q 1469 3103 1208 2742 
Q 947 2381 947 1747 
z
" transform="scale(0.015625)"/>
      <path id="DejaVuSans-79" d="M 2059 -325 
Q 1816 -950 1584 -1140 
Q 1353 -1331 966 -1331 
L 506 -1331 
L 506 -850 
L 844 -850 
Q 1081 -850 1212 -737 
Q 1344 -625 1503 -206 
L 1606 56 
L 191 3500 
L 800 3500 
L 1894 763 
L 2988 3500 
L 3597 3500 
L 2059 -325 
z
" transform="scale(0.015625)"/>
      <path id="DejaVuSans-6b" d="M 581 4863 
L 1159 4863 
L 1159 1991 
L 2875 3500 
L 3609 3500 
L 1753 1863 
L 3688 0 
L 2938 0 
L 1159 1709 
L 1159 0 
L 581 0 
L 581 4863 
z
" transform="scale(0.015625)"/>
      <path id="DejaVuSans-66" d="M 2375 4863 
L 2375 4384 
L 1825 4384 
Q 1516 4384 1395 4259 
Q 1275 4134 1275 3809 
L 1275 3500 
L 2222 3500 
L 2222 3053 
L 1275 3053 
L 1275 0 
L 697 0 
L 697 3053 
L 147 3053 
L 147 3500 
L 697 3500 
L 697 3744 
Q 697 4328 969 4595 
Q 1241 4863 1831 4863 
L 2375 4863 
z
" transform="scale(0.015625)"/>
      <path id="DejaVuSans-78" d="M 3513 3500 
L 2247 1797 
L 3578 0 
L 2900 0 
L 1881 1375 
L 863 0 
L 184 0 
L 1544 1831 
L 300 3500 
L 978 3500 
L 1906 2253 
L 2834 3500 
L 3513 3500 
z
" transform="scale(0.015625)"/>
      <path id="DejaVuSans-63" d="M 3122 3366 
L 3122 2828 
Q 2878 2963 2633 3030 
Q 2388 3097 2138 3097 
Q 1578 3097 1268 2742 
Q 959 2388 959 1747 
Q 959 1106 1268 751 
Q 1578 397 2138 397 
Q 2388 397 2633 464 
Q 2878 531 3122 666 
L 3122 134 
Q 2881 22 2623 -34 
Q 2366 -91 2075 -91 
Q 1284 -91 818 406 
Q 353 903 353 1747 
Q 353 2603 823 3093 
Q 1294 3584 2113 3584 
Q 2378 3584 2631 3529 
Q 2884 3475 3122 3366 
z
" transform="scale(0.015625)"/>
     </defs>
     <use xlink:href="#DejaVuSans-57"/>
     <use xlink:href="#DejaVuSans-68" x="98.876953"/>
     <use xlink:href="#DejaVuSans-61" x="162.255859"/>
     <use xlink:href="#DejaVuSans-74" x="223.535156"/>
     <use xlink:href="#DejaVuSans-20" x="262.744141"/>
     <use xlink:href="#DejaVuSans-77" x="294.53125"/>
     <use xlink:href="#DejaVuSans-6f" x="376.318359"/>
     <use xlink:href="#DejaVuSans-75" x="437.5"/>
     <use xlink:href="#DejaVuSans-6c" x="500.878906"/>
     <use xlink:href="#DejaVuSans-64" x="528.662109"/>
     <use xlink:href="#DejaVuSans-20" x="592.138672"/>
     <use xlink:href="#DejaVuSans-79" x="623.925781"/>
     <use xlink:href="#DejaVuSans-6f" x="683.105469"/>
     <use xlink:href="#DejaVuSans-75" x="744.287109"/>
     <use xlink:href="#DejaVuSans-20" x="807.666016"/>
     <use xlink:href="#DejaVuSans-74" x="839.453125"/>
     <use xlink:href="#DejaVuSans-68" x="878.662109"/>
     <use xlink:href="#DejaVuSans-69" x="942.041016"/>
     <use xlink:href="#DejaVuSans-6e" x="969.824219"/>
     <use xlink:href="#DejaVuSans-6b" x="1033.203125"/>
     <use xlink:href="#DejaVuSans-20" x="1091.113281"/>
     <use xlink:href="#DejaVuSans-69" x="1122.900391"/>
     <use xlink:href="#DejaVuSans-66" x="1150.683594"/>
     <use xlink:href="#DejaVuSans-20" x="1185.888672"/>
     <use xlink:href="#DejaVuSans-74" x="1217.675781"/>
     <use xlink:href="#DejaVuSans-68" x="1256.884766"/>
     <use xlink:href="#DejaVuSans-65" x="1320.263672"/>
     <use xlink:href="#DejaVuSans-69" x="1381.787109"/>
     <use xlink:href="#DejaVuSans-72" x="1409.570312"/>
     <use xlink:href="#DejaVuSans-20" x="1450.683594"/>
     <use xlink:href="#DejaVuSans-72" x="1482.470703"/>
     <use xlink:href="#DejaVuSans-65" x="1521.333984"/>
     <use xlink:href="#DejaVuSans-6c" x="1582.857422"/>
     <use xlink:href="#DejaVuSans-61" x="1610.640625"/>
     <use xlink:href="#DejaVuSans-74" x="1671.919922"/>
     <use xlink:href="#DejaVuSans-69" x="1711.128906"/>
     <use xlink:href="#DejaVuSans-6f" x="1738.912109"/>
     <use xlink:href="#DejaVuSans-6e" x="1800.09375"/>
     <use xlink:href="#DejaVuSans-73" x="1863.472656"/>
     <use xlink:href="#DejaVuSans-68" x="1915.572266"/>
     <use xlink:href="#DejaVuSans-69" x="1978.951172"/>
     <use xlink:href="#DejaVuSans-70" x="2006.734375"/>
     <use xlink:href="#DejaVuSans-20" x="2070.210938"/>
     <use xlink:href="#DejaVuSans-65" x="2101.998047"/>
     <use xlink:href="#DejaVuSans-6e" x="2163.521484"/>
     <use xlink:href="#DejaVuSans-64" x="2226.900391"/>
     <use xlink:href="#DejaVuSans-65" x="2290.376953"/>
     <use xlink:href="#DejaVuSans-64" x="2351.900391"/>
     <use xlink:href="#DejaVuSans-20" x="2415.376953"/>
     <use xlink:href="#DejaVuSans-75" x="2447.164062"/>
     <use xlink:href="#DejaVuSans-70" x="2510.542969"/>
     <use xlink:href="#DejaVuSans-20" x="2574.019531"/>
     <use xlink:href="#DejaVuSans-65" x="2605.806641"/>
     <use xlink:href="#DejaVuSans-78" x="2665.580078"/>
     <use xlink:href="#DejaVuSans-70" x="2724.759766"/>
     <use xlink:href="#DejaVuSans-6c" x="2788.236328"/>
     <use xlink:href="#DejaVuSans-69" x="2816.019531"/>
     <use xlink:href="#DejaVuSans-63" x="2843.802734"/>
     <use xlink:href="#DejaVuSans-69" x="2898.783203"/>
     <use xlink:href="#DejaVuSans-74" x="2926.566406"/>
     <use xlink:href="#DejaVuSans-6c" x="2965.775391"/>
     <use xlink:href="#DejaVuSans-79" x="2993.558594"/>
     <use xlink:href="#DejaVuSans-20" x="3052.738281"/>
     <use xlink:href="#DejaVuSans-66" x="3084.525391"/>
     <use xlink:href="#DejaVuSans-72" x="3119.730469"/>
     <use xlink:href="#DejaVuSans-69" x="3160.84375"/>
     <use xlink:href="#DejaVuSans-65" x="3188.626953"/>
     <use xlink:href="#DejaVuSans-6e" x="3250.150391"/>
     <use xlink:href="#DejaVuSans-64" x="3313.529297"/>
     <use xlink:href="#DejaVuSans-6c" x="3377.005859"/>
     <use xlink:href="#DejaVuSans-79" x="3404.789062"/>
     <use xlink:href="#DejaVuSans-20" x="3463.96875"/>
     <use xlink:href="#DejaVuSans-67" x="3495.755859"/>
     <use xlink:href="#DejaVuSans-72" x="3559.232422"/>
     <use xlink:href="#DejaVuSans-61" x="3600.345703"/>
     <use xlink:href="#DejaVuSans-70" x="3661.625"/>
     <use xlink:href="#DejaVuSans-68" x="3725.101562"/>
    </g>
   </g>
  </g>
 </g>
</svg>
